Coordinates
version=1
nRows=14
nColumns=33
inDegrees=yes

Units are S.I. units (second, meters, Newtons, ...)
Angles are in degrees.

endheader
time	ground_thorax_rot_x	ground_thorax_rot_y	ground_thorax_rot_z	ground_thorax_tx	ground_thorax_ty	ground_thorax_tz	clav_prot_r	clav_elev_r	scapula_abduction_r	scapula_elevation_r	scapula_upward_rot_r	scapula_winging_r	shoulder_elv_r	plane_of_elev_r	axial_rot_r	elbow_flexion_r	pro_sup_r	wrist_flex_r	wrist_dev_r	clav_prot_l	clav_elev_l	scapula_abduction_l	scapula_elevation_l	scapula_upward_rot_l	scapula_winging_l	shoulder_elv_l	plane_of_elev_l	axial_rot_l	elbow_flexion_l	pro_sup_l	wrist_flex_l	wrist_dev_l	
8.1700	-38.356513	-7.970676	14.566776	-258.429084	852.409140	5.493532	6.218724	-45.000000	36.560855	-45.000000	-39.073089	3136.053761	-1727.143964	33.814790	62.313029	1099.380701	94.403688	13.316457	1.799328	14.166130	37.175070	-35.794469	-45.000000	-45.000000	-1353.332264	2593.723918	22.426377	-45.147974	2181.151529	116.495922	-1.127201	-11.821036	
8.1800	-38.344126	-8.033213	14.674344	-258.554085	852.234249	5.546889	6.269961	-45.000000	36.494872	-45.000000	-39.209353	3136.033561	-1727.125551	33.820933	62.271000	1099.355550	94.435569	13.325215	1.861137	14.141450	37.165658	-35.752503	-45.000000	-45.000000	-1353.356182	2593.683414	22.404124	-45.269530	2181.102669	116.799223	-1.127597	-11.718316	
8.1900	-38.340308	-8.097885	14.750885	-258.670740	852.068344	5.615237	6.323976	-45.000000	36.459208	-45.000000	-39.361605	3136.037363	-1727.090100	33.820066	62.219702	1099.345860	94.308719	13.338770	1.913510	14.117544	37.148920	-35.701193	-45.000000	-45.000000	-1353.384261	2593.653101	22.383153	-45.378417	2181.061778	117.098429	-1.171493	-11.561373	
8.2000	-38.352089	-8.152555	14.800592	-258.742156	851.916410	5.700219	6.358248	-45.000000	36.438594	-45.000000	-39.464260	3136.036910	-1727.061984	33.823223	62.133388	1099.313500	93.960712	13.387008	1.978787	14.113659	37.143153	-35.672714	-45.000000	-45.000000	-1353.399756	2593.623232	22.373189	-45.439982	2181.045015	117.373494	-1.169882	-11.477676	
8.2100	-38.376298	-8.192431	14.827466	-258.742170	851.778273	5.794273	6.388829	-45.000000	36.436211	-45.000000	-39.531361	3136.035938	-1727.037317	33.837256	62.024832	1099.270750	93.398016	13.423977	2.029103	14.117922	37.138944	-35.670678	-45.000000	-45.000000	-1353.414518	2593.596990	22.360954	-45.471749	2181.047793	117.630360	-1.155564	-11.428597	
8.2200	-38.409030	-8.230823	14.845827	-258.641605	851.651034	5.889425	6.410207	-45.000000	36.451748	-45.000000	-39.562672	3136.047587	-1727.003809	33.852293	61.914911	1099.235637	92.670244	13.442156	2.051341	14.139846	37.139794	-35.668339	-45.000000	-45.000000	-1353.420535	2593.576148	22.365787	-45.467630	2181.067302	117.873218	-1.133312	-11.392234	
8.2300	-38.448384	-8.249164	14.861073	-258.416066	851.527488	5.974479	6.433233	-45.000000	36.474412	-45.000000	-39.549348	3136.058650	-1726.979853	33.883318	61.816748	1099.206443	91.894882	13.401911	2.033425	14.161434	37.139016	-35.694211	-45.000000	-45.000000	-1353.433069	2593.559980	22.363951	-45.445968	2181.096280	118.107608	-1.107710	-11.376134	
8.2400	-38.486582	-8.270385	14.891940	-258.057751	851.398332	6.041344	6.449807	-45.000000	36.505115	-45.000000	-39.502874	3136.087951	-1726.948294	33.909279	61.760815	1099.209351	91.215622	13.309191	1.970487	14.194567	37.141390	-35.705905	-45.000000	-45.000000	-1353.442777	2593.548852	22.381268	-45.401820	2181.125600	118.343456	-1.087414	-11.344166	
8.2500	-38.526369	-8.266610	14.928228	-257.573329	851.254155	6.085834	6.465623	-45.000000	36.529991	-45.000000	-39.407543	3136.112400	-1726.937263	33.947355	61.747044	1099.236104	90.778421	13.154683	1.876351	14.216754	37.140746	-35.745836	-45.000000	-45.000000	-1353.463797	2593.542687	22.388583	-45.348999	2181.157346	118.583488	-1.066564	-11.325333	
8.2600	-38.563037	-8.269223	14.977220	-256.991057	851.088968	6.110521	6.466848	-45.000000	36.559905	-45.000000	-39.281680	3136.152827	-1726.925230	33.969916	61.790819	1099.303928	90.676974	12.978490	1.767308	14.246571	37.144975	-35.767892	-45.000000	-45.000000	-1353.481593	2593.541379	22.414991	-45.270823	2181.182085	118.834267	-1.044601	-11.294318	
8.2700	-38.601297	-8.249171	15.015028	-256.344306	850.900184	6.118686	6.466639	-45.000000	36.583955	-45.000000	-39.122442	3136.184971	-1726.938623	33.998247	61.874265	1099.397754	90.948777	12.783277	1.664144	14.257321	37.144174	-35.814973	-45.000000	-45.000000	-1353.515031	2593.546332	22.428611	-45.183191	2181.207776	119.095520	-1.024996	-11.273532	
8.2800	-38.636339	-8.240434	15.051858	-255.666716	850.688397	6.112713	6.456299	-45.000000	36.610097	-45.000000	-38.953605	3136.226633	-1726.955026	34.008157	62.001255	1099.527433	91.578737	12.606633	1.577901	14.268887	37.147232	-35.841199	-45.000000	-45.000000	-1353.548427	2593.556510	22.459749	-45.072101	2181.227474	119.373699	-1.003580	-11.244639	
8.2900	-38.669870	-8.223951	15.072116	-254.987723	850.455403	6.094512	6.449603	-45.000000	36.631118	-45.000000	-38.777773	3136.256407	-1726.990742	34.017754	62.148339	1099.677365	92.494912	12.454420	1.519969	14.260966	37.144218	-35.875986	-45.000000	-45.000000	-1353.594527	2593.575049	22.485303	-44.952630	2181.256211	119.668325	-0.986449	-11.221225	
8.3000	-38.695354	-8.237115	15.093251	-254.329684	850.204337	6.065670	6.438379	-45.000000	36.660553	-45.000000	-38.616521	3136.292216	-1727.021714	34.006226	62.310020	1099.842896	93.586034	12.358533	1.490513	14.256722	37.143585	-35.881729	-45.000000	-45.000000	-1353.636141	2593.597320	22.527663	-44.813534	2181.283520	119.982684	-0.966273	-11.190317	
